<svg xmlns="http://www.w3.org/2000/svg" width="24" height="24" viewBox="0 0 212 189">
    <g fill="none" fill-rule="evenodd">
        <polygon fill="#E17726" stroke="#E17726" stroke-linecap="round" stroke-linejoin="round" points="25.68 0 88.11 35.53 75.99 16.36 25.68 0"/>
        <polygon fill="#E27625" stroke="#E27625" stroke-linecap="round" stroke-linejoin="round" points="185.72 0 124.04 35.88 135.41 16.36 185.72 0"/>
        <polygon fill="#E27625" stroke="#E27625" stroke-linecap="round" stroke-linejoin="round" points="38.03 138.51 0 138.51 15.87 170.05 38.03 138.51"/>
        <polygon fill="#E27625" stroke="#E27625" stroke-linecap="round" stroke-linejoin="round" points="173.37 138.51 211.4 138.51 195.53 170.05 173.37 138.51"/>
        <polygon fill="#E27625" stroke="#E27625" stroke-linecap="round" stroke-linejoin="round" points="75.99 16.36 88.11 35.53 93.47 83.79 89.63 68.27 75.99 16.36"/>
        <polygon fill="#E27625" stroke="#E27625" stroke-linecap="round" stroke-linejoin="round" points="135.41 16.36 121.77 68.27 117.93 83.79 123.29 35.53 135.41 16.36"/>
        <polygon fill="#F5841F" stroke="#F5841F" stroke-linecap="round" stroke-linejoin="round" points="75.99 16.36 89.63 68.27 38.03 138.51 75.99 16.36"/>
        <polygon fill="#F5841F" stroke="#F5841F" stroke-linecap="round" stroke-linejoin="round" points="135.41 16.36 173.37 138.51 121.77 68.27 135.41 16.36"/>
        <polygon fill="#F5841F" stroke="#F5841F" stroke-linecap="round" stroke-linejoin="round" points="185.72 0 124.04 35.88 173.37 138.51 185.72 0"/>
        <polygon fill="#F5841F" stroke="#F5841F" stroke-linecap="round" stroke-linejoin="round" points="25.68 0 38.03 138.51 88.11 35.53 25.68 0"/>
        <polygon fill="#E27625" stroke="#E27625" stroke-linecap="round" stroke-linejoin="round" points="38.03 138.51 89.63 68.27 93.47 83.79 38.03 138.51"/>
        <polygon fill="#E27625" stroke="#E27625" stroke-linecap="round" stroke-linejoin="round" points="173.37 138.51 117.93 83.79 121.77 68.27 173.37 138.51"/>
    </g>
</svg> 