<svg xmlns="http://www.w3.org/2000/svg" width="24" height="24" viewBox="0 0 512 512">
    <path d="M364.5,240.9c47.4-46.1,98.3-46.1,145.7,0l14.8,14.4c2,2,2,5.1,0,7.1L498.5,287c-1,1-2.6,1-3.6,0l-20.4-19.9
        c-33.1-32.2-66.8-32.2-99.9,0l-21.8,21.2c-1,1-2.6,1-3.6,0l-62.2-60.6c-1-1-1-2.6,0-3.6L364.5,240.9z M257.1,240.9
        c47.4-46.1,98.3-46.1,145.7,0l14.8,14.4c2,2,2,5.1,0,7.1L391.1,287c-1,1-2.6,1-3.6,0l-20.4-19.9c-33.1-32.2-66.8-32.2-99.9,0
        l-21.8,21.2c-1,1-2.6,1-3.6,0l-62.2-60.6c-1-1-1-2.6,0-3.6L257.1,240.9z" fill="#3B99FC"/>
</svg> 